PathFileType	4	(X/Y/Z)	./resultDataOpenSim/trcMotMarkerGrf/sub10/qtm-03-02.trc
DataRate	CameraRate	NumFrames	NumMarkers	Units	OrigDataRate	OrigDataStartFrame	OrigNumFrames
250.000000	250.000000	10	24	m	250.000000	241	481
Frame#	Time	L.Toe.Tip			R.Toe.Tip			L.Ankle.Lat			R.Ankle.Lat			L.Ankle.Med			R.Ankle.Med			L.Heel			R.Heel			L.Knee.Lat			R.Knee.Lat			L.Knee.Med			R.Knee.Med			L.Thigh.Upper			R.Thigh.Upper			L.ASIS			R.ASIS			V.Sacral			L.Acromium			R.Acromium			C7			L.Elbow			R.Elbow			L.Wrist.Lat			R.Wrist.Lat
		X1	Y1	Z1	X2	Y2	Z2	X3	Y3	Z3	X4	Y4	Z4	X5	Y5	Z5	X6	Y6	Z6	X7	Y7	Z7	X8	Y8	Z8	X9	Y9	Z9	X10	Y10	Z10	X11	Y11	Z11	X12	Y12	Z12	X13	Y13	Z13	X14	Y14	Z14	X15	Y15	Z15	X16	Y16	Z16	X17	Y17	Z17	X18	Y18	Z18	X19	Y19	Z19	X20	Y20	Z20	X21	Y21	Z21	X22	Y22	Z22	X23	Y23	Z23	X24	Y24	Z24

241	0.96	-0.017254411	-0.0064653442	-0.067365864	-0.0058345498	0.062361843	0.098806426	-0.15144713	0.02307029	-0.099317909	-0.11601838	0.1537193	0.093675272	-0.13988112	0.05269023	-0.019158602	-0.064131754	0.15207078	0.0207643	-0.2155345	-0.00035742901	-0.047931951	-0.16046862	0.14713297	0.036121788	-0.075675305	0.40528399	-0.15127212	0.11614976	0.45654091	0.12498096	-0.075395993	0.38864009	-0.029589464	0.17105494	0.45971867	0.0015933373	-0.028388527	0.79887491	-0.22039127	-0.060068402	0.81506786	0.1542835	0.02876574	0.90594046	-0.15138179	0.017803687	0.91343834	0.090062923	-0.17339589	0.92791812	-0.040629166	-0.0085254999	1.3786703	-0.19185678	-0.067640719	1.3843915	0.12743917	-0.12047452	1.409946	-0.054064254	-0.08680714	1.0424184	-0.24433154	-0.19294582	1.0593413	0.15517142	0.096316748	0.85834298	-0.25766929	-0.1114956	0.84325814	0.23900716
242	0.964	-0.017385962	-0.0064520622	-0.067590325	0.014496433	0.060963987	0.098534463	-0.15151186	0.023489255	-0.09964793	-0.098853256	0.14835708	0.093233856	-0.13966379	0.05302376	-0.019598303	-0.047050317	0.1481642	0.020354555	-0.21533727	0.00022469066	-0.048569439	-0.14321646	0.14021936	0.035775571	-0.075511633	0.4057833	-0.15180035	0.12522695	0.45851092	0.12393618	-0.074888819	0.38902144	-0.030036903	0.17899426	0.46290391	0.00055305421	-0.024308309	0.79904392	-0.21983689	-0.053196486	0.816452	0.15455241	0.032797454	0.9061151	-0.15220709	0.023635368	0.91417573	0.089117264	-0.16840301	0.9285978	-0.039528115	-0.0033519351	1.3792154	-0.19218141	-0.062019562	1.3848885	0.12720155	-0.11499324	1.4104706	-0.054513305	-0.081019559	1.0426437	-0.24414387	-0.18890744	1.0606816	0.15437981	0.10567242	0.86057675	-0.257303	-0.10999146	0.84387917	0.23893842
243	0.968	-0.017500609	-0.0064287286	-0.067776996	0.034893942	0.059668479	0.098229796	-0.15158703	0.023896022	-0.099968281	-0.081467783	0.14299996	0.092741223	-0.13932642	0.053389633	-0.020087916	-0.029774755	0.14428147	0.019827853	-0.21520652	0.00085962479	-0.049123725	-0.12541979	0.13321728	0.035308179	-0.0752692	0.40633406	-0.15236125	0.13412941	0.46039034	0.12283221	-0.074459943	0.38939706	-0.030279549	0.18674798	0.46590696	-0.00050999291	-0.020682228	0.79924754	-0.21956086	-0.045892244	0.81788731	0.15502743	0.036819417	0.90624322	-0.15305057	0.029499048	0.91484335	0.088233854	-0.16363328	0.92933838	-0.038279895	0.0018229287	1.3796948	-0.19251116	-0.056350045	1.3853242	0.12696217	-0.10951601	1.4109356	-0.054973538	-0.075288352	1.0428149	-0.24392626	-0.1848748	1.062077	0.15360818	0.11500076	0.86279807	-0.25692224	-0.10856453	0.844475	0.23879328
244	0.972	-0.017586207	-0.006384533	-0.067928392	0.055330122	0.058492588	0.097916704	-0.15167391	0.024278141	-0.10027646	-0.063884213	0.13767216	0.092195505	-0.13896394	0.053810225	-0.020601389	-0.012280933	0.14051856	0.019167725	-0.21522342	0.0015739884	-0.049492713	-0.10711338	0.12615989	0.034657251	-0.075068713	0.40693238	-0.15290514	0.14289666	0.46219354	0.12172584	-0.074117918	0.38973816	-0.030410516	0.1943322	0.46871131	-0.0015875228	-0.017349454	0.79948041	-0.21950371	-0.038252692	0.81932078	0.15567768	0.040809738	0.90631861	-0.15391716	0.035455654	0.9154534	0.087445385	-0.15907821	0.93023549	-0.036642664	0.0069919011	1.3801078	-0.19285167	-0.05064529	1.3856903	0.12671983	-0.10399584	1.4113552	-0.055321625	-0.069608544	1.0429147	-0.24368626	-0.18082819	1.0634566	0.15284722	0.12429854	0.8650066	-0.25653091	-0.1072209	0.84504247	0.23855989
245	0.976	-0.017654757	-0.0063199894	-0.068082033	0.075786667	0.057463121	0.097607678	-0.15176995	0.024637918	-0.10055654	-0.046119587	0.13239521	0.091591298	-0.13881223	0.054296881	-0.021027076	0.0053851128	0.13686211	0.018421992	-0.21539927	0.0023920852	-0.049726314	-0.088491863	0.1191593	0.033870754	-0.075139273	0.40750995	-0.15324475	0.15153879	0.46391225	0.12064589	-0.073726882	0.39003007	-0.030577723	0.20175573	0.47131161	-0.002668604	-0.013967405	0.79973941	-0.21952897	-0.03033334	0.82073321	0.15646848	0.044747655	0.90632841	-0.1548132	0.041536212	0.91601618	0.086763044	-0.15432229	0.93117855	-0.034682194	0.012156164	1.380455	-0.1932022	-0.04491685	1.3859841	0.1264737	-0.098426404	1.4117331	-0.055530612	-0.063924179	1.0429129	-0.24347076	-0.17675257	1.064756	0.15209106	0.13356205	0.86720347	-0.25613213	-0.10590272	0.8455857	0.23827428
246	0.98	-0.017711139	-0.006240837	-0.06828113	0.096259534	0.056596947	0.097297455	-0.15189481	0.024996471	-0.10075242	-0.028178915	0.12717083	0.090926314	-0.13901673	0.054858948	-0.021287996	0.023180835	0.13325026	0.017657889	-0.21565692	0.0032721939	-0.049899064	-0.069754851	0.11230213	0.033043541	-0.075612449	0.40797494	-0.15320151	0.16003176	0.46550645	0.11958362	-0.073201721	0.39027489	-0.030811046	0.20900374	0.47370682	-0.0037441378	-0.010272633	0.80001335	-0.21961655	-0.022514093	0.82203379	0.15719294	0.048658435	0.90627359	-0.15572407	0.047678211	0.9165278	0.086152652	-0.148813	0.93185542	-0.032945311	0.017322195	1.3807345	-0.1935577	-0.03917456	1.3862078	0.12622726	-0.092836384	1.4120609	-0.055660952	-0.058156367	1.0427826	-0.24334249	-0.17264117	1.0659488	0.15134044	0.14279069	0.86938852	-0.25572702	-0.10459135	0.84610258	0.23796395
247	0.984	-0.017738337	-0.006155996	-0.068541771	0.1167541	0.055900752	0.096969353	-0.15210454	0.025378263	-0.10076066	-0.010081079	0.12199173	0.09019997	-0.13945787	0.055484594	-0.021394689	0.041092776	0.12965637	0.016916382	-0.21587812	0.0041122513	-0.050039334	-0.050936948	0.10557388	0.032205992	-0.076255422	0.40831804	-0.15287438	0.16835033	0.4669335	0.11852417	-0.072553306	0.39047828	-0.031051571	0.21604877	0.47589437	-0.0048133523	-0.0063085461	0.80024629	-0.21986818	-0.015341656	0.82308699	0.15757131	0.052649499	0.9061869	-0.15659175	0.053756886	0.91697046	0.085554623	-0.1426383	0.93211797	-0.031858626	0.022489748	1.3809441	-0.19391997	-0.033417538	1.3863659	0.12598326	-0.087245915	1.4123268	-0.055773337	-0.052253941	1.0425141	-0.24333847	-0.16849352	1.0670388	0.15059986	0.1519903	0.87155856	-0.25530974	-0.10330814	0.84658205	0.23762212
248	0.988	-0.01774407	-0.0060874751	-0.068820506	0.13727743	0.055382521	0.096601607	-0.15243654	0.025787935	-0.10052478	0.0081371694	0.11687192	0.089416286	-0.13986952	0.056126044	-0.021423314	0.059119342	0.12610237	0.016199994	-0.21599587	0.0048397824	-0.05014714	-0.031952064	0.098950624	0.031283476	-0.07663326	0.40862069	-0.15257497	0.17648576	0.46817362	0.11746932	-0.071821025	0.39064281	-0.031251762	0.22288764	0.47786954	-0.0058839169	-0.0025065782	0.80033094	-0.22036708	-0.0089318276	0.82386431	0.15755587	0.056854534	0.90611782	-0.15733873	0.059687396	0.9173269	0.084930139	-0.13655179	0.93215598	-0.031180592	0.027653233	1.381084	-0.19429359	-0.027638819	1.3864576	0.12573707	-0.081649419	1.4125237	-0.055889201	-0.046201085	1.0421117	-0.24346506	-0.16431256	1.068042	0.14987156	0.16117131	0.87370945	-0.25486651	-0.10203592	0.84701369	0.23722835
249	0.992	-0.01778627	-0.0060644015	-0.069024023	0.15782443	0.055057416	0.096172475	-0.15282177	0.026205642	-0.10016584	0.026451661	0.1118367	0.088616304	-0.14008573	0.056716484	-0.021474781	0.077251259	0.12263458	0.015473503	-0.21602442	0.0054633261	-0.050212786	-0.012737963	0.09247269	0.030182807	-0.076561806	0.40894471	-0.15247258	0.18444403	0.4692269	0.11643025	-0.071026527	0.39076974	-0.031395672	0.22956152	0.47963026	-0.0069640259	0.00073061127	0.80018486	-0.22101295	-0.0028967107	0.82447084	0.15735298	0.061297594	0.90608782	-0.157943	0.065472172	0.9175944	0.08427986	-0.13113915	0.93216829	-0.030403221	0.032815246	1.381154	-0.19467093	-0.021832698	1.386478	0.1254802	-0.076036656	1.4126483	-0.056007094	-0.039998515	1.0415845	-0.24371465	-0.16010413	1.0689731	0.14915439	0.17033832	0.87583764	-0.25438825	-0.10068913	0.84740117	0.23679066
250	0.996	-0.017903018	-0.0060857835	-0.069113102	0.17836964	0.054939366	0.095665749	-0.15312776	0.026607594	-0.099898189	0.044882339	0.10688723	0.087900552	-0.14011997	0.057215527	-0.021611412	0.095459416	0.11931168	0.014690118	-0.21600633	0.0060332125	-0.050226222	0.0066751372	0.086181681	0.02896419	-0.076173554	0.40928235	-0.15250848	0.19224711	0.4701004	0.11540927	-0.070168229	0.39086157	-0.03148166	0.23611348	0.4811763	-0.0080501458	0.0034732795	0.79983124	-0.2215828	0.0031942347	0.82502958	0.15717875	0.065789661	0.90604277	-0.15850666	0.071168907	0.91778515	0.083631561	-0.12657172	0.93216743	-0.029286394	0.037987556	1.3811492	-0.19503672	-0.01599607	1.3864272	0.12521029	-0.07041252	1.4126959	-0.056125728	-0.033648792	1.0409414	-0.24407817	-0.15587971	1.069843	0.14845173	0.179478	0.87793894	-0.25388525	-0.099190244	0.84775995	0.23634871
